<?xml version="1.0" standalone="no"?>
<!DOCTYPE svg PUBLIC "-//W3C//DTD SVG 20010904//EN"
 "http://www.w3.org/TR/2001/REC-SVG-20010904/DTD/svg10.dtd">
<svg version="1.0" xmlns="http://www.w3.org/2000/svg"
 width="180.000000pt" height="180.000000pt" viewBox="0 0 180.000000 180.000000"
 preserveAspectRatio="xMidYMid meet">

<g transform="translate(0.000000,180.000000) scale(0.100000,-0.100000)"
fill="#000000" stroke="none">
<path d="M642 1562 c-229 -133 -251 -147 -224 -153 37 -7 200 -113 209 -135 9
-24 -10 -48 -39 -52 -18 -2 -57 17 -127 62 -83 54 -101 70 -101 91 0 24 -1 24
-80 -22 l-80 -47 -2 -343 c-1 -189 -2 -371 -3 -405 l0 -63 80 -47 80 -48 6 38
c3 20 25 73 48 117 24 44 60 132 81 195 41 120 57 143 87 124 43 -27 13 -155
-83 -352 -43 -89 -61 -116 -83 -125 -28 -12 -22 -16 230 -160 l258 -148 246
142 247 142 -25 21 c-14 12 -61 72 -106 133 -64 88 -82 119 -79 140 2 23 8 29
34 31 29 3 36 -4 96 -85 97 -132 118 -165 118 -191 0 -28 -4 -29 93 27 l77 45
2 343 c1 189 2 371 3 406 l0 62 -80 47 c-44 27 -83 48 -87 48 -4 0 -8 -12 -10
-27 l-3 -28 -148 -5 -148 -5 -19 -42 -18 -41 125 -4 c172 -4 163 11 163 -260
0 -208 0 -209 -25 -233 -23 -23 -31 -25 -130 -25 l-105 0 0 -163 c0 -184 -5
-199 -68 -216 -44 -13 -155 4 -177 26 -19 19 -19 47 0 63 13 11 27 10 75 -5
88 -27 90 -24 90 151 l0 144 -95 0 c-88 0 -98 2 -120 25 -25 24 -25 25 -25
233 0 260 -3 253 120 262 60 3 85 9 90 20 4 8 12 25 18 37 7 13 12 25 12 28 0
9 -255 5 -270 -5 -13 -8 -16 -61 -20 -342 -6 -327 -6 -334 -33 -413 -14 -44
-46 -110 -69 -147 -41 -64 -45 -68 -80 -68 -34 0 -38 3 -38 26 0 15 15 52 33
83 18 31 38 67 44 81 6 14 15 36 21 50 31 70 35 118 41 437 6 329 6 333 29
355 22 23 25 23 362 28 l340 5 -248 143 c-137 78 -251 142 -253 142 -2 -1
-118 -67 -257 -148z m-143 -513 c107 -68 112 -72 109 -103 -5 -55 -41 -48
-173 34 -102 63 -115 75 -115 99 0 63 43 56 179 -30z m469 -377 c3 -26 -7 -47
-44 -100 -27 -37 -73 -93 -103 -125 -47 -49 -60 -58 -85 -55 -54 5 -46 37 35
130 39 46 85 107 101 136 28 48 33 53 62 50 27 -3 31 -7 34 -36z"/>
<path d="M890 1151 c-5 -11 -10 -42 -10 -70 l0 -51 210 0 210 0 0 58 c0 32 -5
63 -12 70 -8 8 -67 12 -200 12 -175 0 -188 -1 -198 -19z"/>
<path d="M880 891 c0 -38 5 -63 14 -70 9 -8 73 -11 207 -9 l194 3 3 68 3 67
-211 0 -210 0 0 -59z"/>
</g>
</svg>
